<svg xmlns="http://www.w3.org/2000/svg" width="139" height="138" fill="none">
    <path fill="#FACC15"
        d="M100.6 12.8c.6.6 1 1.7.8 2.5l-1 5.4c0 .8.4 1 1 .7l4.7-2.5a3 3 0 0 1 2.6 0l4.7 2.5c.7.4 1.1 0 1-.7l-1-5.4a3 3 0 0 1 .8-2.5l3.9-3.7c.5-.6.3-1.2-.5-1.3l-5.2-.7a3 3 0 0 1-2-1.5l-2.4-5c-.3-.7-.9-.7-1.2 0l-2.3 5a3 3 0 0 1-2 1.5l-5.3.7c-.8.1-1 .7-.4 1.3l3.8 3.7ZM75.5 12.8c.6.6 1 1.7.8 2.5l-1 5.4c0 .8.4 1 1 .7L81 19a3 3 0 0 1 2.6 0l4.7 2.5c.7.4 1.1 0 1-.7l-1-5.4c-.1-.8.3-2 .8-2.5L93 9.1c.6-.6.4-1.2-.4-1.3l-5.2-.7a3 3 0 0 1-2-1.5l-2.4-5c-.3-.7-.9-.7-1.2 0l-2.3 5A3 3 0 0 1 77.3 7l-5.2.7c-.8.1-1 .7-.4 1.3l3.8 3.7ZM50.4 12.8c.6.6 1 1.7.8 2.5l-1 5.4c-.1.8.4 1 1 .7L56 19a3 3 0 0 1 2.6 0l4.6 2.5c.8.4 1.2 0 1-.7l-.9-5.4c-.1-.8.3-2 .8-2.5l3.8-3.7c.6-.6.4-1.2-.4-1.3l-5.2-.7a3 3 0 0 1-2-1.5l-2.4-5c-.3-.7-.9-.7-1.2 0l-2.3 5A3 3 0 0 1 52.2 7l-5.2.7c-.8.1-1 .7-.4 1.3l3.8 3.7ZM25.3 12.8c.6.6 1 1.7.8 2.5l-1 5.4c-.1.8.4 1 1 .7l4.7-2.5a3 3 0 0 1 2.6 0l4.6 2.5c.7.4 1.2 0 1-.7l-.9-5.4c-.1-.8.2-2 .8-2.5l3.8-3.7c.6-.6.4-1.2-.4-1.3l-5.2-.7a3 3 0 0 1-2-1.5l-2.4-5c-.3-.7-.9-.7-1.2 0l-2.3 5A3 3 0 0 1 27 7l-5.2.7c-.8.1-1 .7-.4 1.3l3.8 3.7ZM133.1 27.4H6.4a5.8 5.8 0 0 0-5.8 5.8v101.3a3 3 0 0 0 2.9 3h54.9V99.7a3 3 0 0 1 2.9-3h17.2a3 3 0 0 1 3 3v37.6H136a3 3 0 0 0 3-3V33.3c0-3.2-2.7-5.8-5.9-5.8ZM46.4 111a3 3 0 0 1-3 3H15.3a3 3 0 0 1-3-3V99.8a3 3 0 0 1 3-3h28.3a3 3 0 0 1 3 3V111Zm0-28.9a3 3 0 0 1-3 3H15.3a3 3 0 0 1-3-3V71a3 3 0 0 1 3-3h28.3a3 3 0 0 1 3 3v11.3Zm0-28.9a3 3 0 0 1-3 3H15.3a3 3 0 0 1-3-3V42a3 3 0 0 1 3-3h28.3a3 3 0 0 1 3 3v11.3Zm35 29a3 3 0 0 1-2.9 2.9H61.3a3 3 0 0 1-3-3V71a3 3 0 0 1 3-3h17.2a3 3 0 0 1 3 3v11.3Zm0-29a3 3 0 0 1-2.9 3H61.3a3 3 0 0 1-3-3V42a3 3 0 0 1 3-3h17.2a3 3 0 0 1 3 3v11.3Zm45.9 57.8a3 3 0 0 1-3 3H96a3 3 0 0 1-2.9-3V99.8a3 3 0 0 1 3-3h28.2a3 3 0 0 1 3 3V111Zm0-28.9a3 3 0 0 1-3 3H96a3 3 0 0 1-2.9-3V71a3 3 0 0 1 3-3h28.2a3 3 0 0 1 3 3v11.3Zm0-28.9a3 3 0 0 1-3 3H96a3 3 0 0 1-2.9-3V42a3 3 0 0 1 3-3h28.2a3 3 0 0 1 3 3v11.3Z" />
</svg>